<svg width="37" height="42" viewBox="0 0 37 42" fill="none" xmlns="http://www.w3.org/2000/svg">
<path d="M13.2227 17.2432C13.0528 17.2432 12.9151 17.3809 12.9151 17.5508C12.9151 17.7207 13.0528 17.8585 13.2227 17.8585V17.2432ZM13.2227 17.8585H20.7795V17.2432H13.2227V17.8585ZM21.5793 17.0586V9.91675H20.964V17.0586H21.5793ZM20.7795 17.8585C21.2212 17.8585 21.5793 17.5003 21.5793 17.0586H20.964C20.964 17.1605 20.8814 17.2432 20.7795 17.2432V17.8585Z" fill="#5E0A8E"/>
<path d="M10.6591 20.5518C10.4892 20.5518 10.3515 20.6895 10.3515 20.8594C10.3515 21.0293 10.4892 21.1671 10.6591 21.1671V20.5518ZM10.6591 21.1671H28.7542V20.5518H10.6591V21.1671ZM29.554 20.3672V17.5403H28.9388V20.3672H29.554ZM28.7542 21.1671C29.1959 21.1671 29.554 20.809 29.554 20.3672H28.9388C28.9388 20.4692 28.8561 20.5518 28.7542 20.5518V21.1671Z" fill="#5E0A8E"/>
<path d="M10.1869 23.7768C10.017 23.7768 9.87922 23.9146 9.87922 24.0845C9.87922 24.2544 10.017 24.3921 10.1869 24.3921V23.7768ZM10.1869 24.3921H28.4422V23.7768H10.1869V24.3921Z" fill="#5E0A8E"/>
<path d="M12.8179 27.0149C12.648 27.0149 12.5103 27.1526 12.5103 27.3225C12.5103 27.4924 12.648 27.6301 12.8179 27.6301V27.0149ZM12.8179 27.6301H21.8444V27.0149H12.8179V27.6301ZM22.0289 27.8147V30.9792H22.6442V27.8147H22.0289ZM22.8288 31.7791H24.7669V31.1638H22.8288V31.7791ZM22.0289 30.9792C22.0289 31.421 22.3871 31.7791 22.8288 31.7791V31.1638C22.7269 31.1638 22.6442 31.0812 22.6442 30.9792H22.0289ZM21.8444 27.6301C21.9463 27.6301 22.0289 27.7128 22.0289 27.8147H22.6442C22.6442 27.373 22.2861 27.0149 21.8444 27.0149V27.6301Z" fill="#5E0A8E"/>
<mask id="path-5-inside-1_2806_10537" fill="white">
<path d="M23.0493 8.35413C23.0493 9.31652 22.2691 10.0967 21.3068 10.0967C20.3444 10.0967 19.5642 9.31652 19.5642 8.35413C19.5642 7.39174 20.3444 6.61157 21.3068 6.61157C22.2691 6.61157 23.0493 7.39174 23.0493 8.35413ZM20.2612 8.35413C20.2612 8.93157 20.7293 9.39967 21.3068 9.39967C21.8842 9.39967 22.3523 8.93157 22.3523 8.35413C22.3523 7.7767 21.8842 7.3086 21.3068 7.3086C20.7293 7.3086 20.2612 7.7767 20.2612 8.35413Z"/>
</mask>
<path d="M23.0493 8.35413C23.0493 9.31652 22.2691 10.0967 21.3068 10.0967C20.3444 10.0967 19.5642 9.31652 19.5642 8.35413C19.5642 7.39174 20.3444 6.61157 21.3068 6.61157C22.2691 6.61157 23.0493 7.39174 23.0493 8.35413ZM20.2612 8.35413C20.2612 8.93157 20.7293 9.39967 21.3068 9.39967C21.8842 9.39967 22.3523 8.93157 22.3523 8.35413C22.3523 7.7767 21.8842 7.3086 21.3068 7.3086C20.7293 7.3086 20.2612 7.7767 20.2612 8.35413Z" fill="#F45E0C" stroke="#F45E0C" stroke-width="0.269851" mask="url(#path-5-inside-1_2806_10537)"/>
<mask id="path-6-inside-2_2806_10537" fill="white">
<path d="M31.0099 15.8578C31.0099 16.8202 30.2297 17.6004 29.2673 17.6004C28.3049 17.6004 27.5248 16.8202 27.5248 15.8578C27.5248 14.8954 28.3049 14.1152 29.2673 14.1152C30.2297 14.1152 31.0099 14.8954 31.0099 15.8578ZM28.2218 15.8578C28.2218 16.4352 28.6899 16.9033 29.2673 16.9033C29.8448 16.9033 30.3129 16.4352 30.3129 15.8578C30.3129 15.2804 29.8448 14.8123 29.2673 14.8123C28.6899 14.8123 28.2218 15.2804 28.2218 15.8578Z"/>
</mask>
<path d="M31.0099 15.8578C31.0099 16.8202 30.2297 17.6004 29.2673 17.6004C28.3049 17.6004 27.5248 16.8202 27.5248 15.8578C27.5248 14.8954 28.3049 14.1152 29.2673 14.1152C30.2297 14.1152 31.0099 14.8954 31.0099 15.8578ZM28.2218 15.8578C28.2218 16.4352 28.6899 16.9033 29.2673 16.9033C29.8448 16.9033 30.3129 16.4352 30.3129 15.8578C30.3129 15.2804 29.8448 14.8123 29.2673 14.8123C28.6899 14.8123 28.2218 15.2804 28.2218 15.8578Z" fill="#F45E0C" stroke="#F45E0C" stroke-width="0.269851" mask="url(#path-6-inside-2_2806_10537)"/>
<mask id="path-7-inside-3_2806_10537" fill="white">
<path d="M31.8194 24.005C31.8194 24.9674 31.0392 25.7476 30.0768 25.7476C29.1145 25.7476 28.3343 24.9674 28.3343 24.005C28.3343 23.0426 29.1145 22.2625 30.0768 22.2625C31.0392 22.2625 31.8194 23.0426 31.8194 24.005ZM29.0313 24.005C29.0313 24.5824 29.4994 25.0505 30.0768 25.0505C30.6543 25.0505 31.1224 24.5824 31.1224 24.005C31.1224 23.4276 30.6543 22.9595 30.0768 22.9595C29.4994 22.9595 29.0313 23.4276 29.0313 24.005Z"/>
</mask>
<path d="M31.8194 24.005C31.8194 24.9674 31.0392 25.7476 30.0768 25.7476C29.1145 25.7476 28.3343 24.9674 28.3343 24.005C28.3343 23.0426 29.1145 22.2625 30.0768 22.2625C31.0392 22.2625 31.8194 23.0426 31.8194 24.005ZM29.0313 24.005C29.0313 24.5824 29.4994 25.0505 30.0768 25.0505C30.6543 25.0505 31.1224 24.5824 31.1224 24.005C31.1224 23.4276 30.6543 22.9595 30.0768 22.9595C29.4994 22.9595 29.0313 23.4276 29.0313 24.005Z" fill="#F45E0C" stroke="#F45E0C" stroke-width="0.269851" mask="url(#path-7-inside-3_2806_10537)"/>
<mask id="path-8-inside-4_2806_10537" fill="white">
<path d="M28.1765 31.4262C28.1765 32.3885 27.3963 33.1687 26.4339 33.1687C25.4715 33.1687 24.6913 32.3885 24.6913 31.4262C24.6913 30.4638 25.4715 29.6836 26.4339 29.6836C27.3963 29.6836 28.1765 30.4638 28.1765 31.4262ZM25.3884 31.4262C25.3884 32.0036 25.8565 32.4717 26.4339 32.4717C27.0113 32.4717 27.4794 32.0036 27.4794 31.4262C27.4794 30.8487 27.0113 30.3806 26.4339 30.3806C25.8565 30.3806 25.3884 30.8487 25.3884 31.4262Z"/>
</mask>
<path d="M28.1765 31.4262C28.1765 32.3885 27.3963 33.1687 26.4339 33.1687C25.4715 33.1687 24.6913 32.3885 24.6913 31.4262C24.6913 30.4638 25.4715 29.6836 26.4339 29.6836C27.3963 29.6836 28.1765 30.4638 28.1765 31.4262ZM25.3884 31.4262C25.3884 32.0036 25.8565 32.4717 26.4339 32.4717C27.0113 32.4717 27.4794 32.0036 27.4794 31.4262C27.4794 30.8487 27.0113 30.3806 26.4339 30.3806C25.8565 30.3806 25.3884 30.8487 25.3884 31.4262Z" fill="#F45E0C" stroke="#F45E0C" stroke-width="0.269851" mask="url(#path-8-inside-4_2806_10537)"/>
<path d="M17.9292 33.1915H2.43033C1.6148 33.1915 0.953674 32.5304 0.953674 31.7149V11.7276C0.953674 11.2292 1.20504 10.7645 1.62212 10.4917L14.9394 1.7825C15.4003 1.48108 15.9907 1.46119 16.4708 1.7309L25.6569 6.89098" stroke="#5E0A8E" stroke-width="0.984437" stroke-linecap="round"/>
</svg>
